<?xml version="1.0" encoding="iso-8859-1"?>
<!-- Generator: Adobe Illustrator 16.0.0, SVG Export Plug-In . SVG Version: 6.00 Build 0)  -->
<!DOCTYPE svg PUBLIC "-//W3C//DTD SVG 1.1//EN" "http://www.w3.org/Graphics/SVG/1.1/DTD/svg11.dtd">
<svg version="1.1" id="Capa_1" xmlns="http://www.w3.org/2000/svg" xmlns:xlink="http://www.w3.org/1999/xlink" x="0px" y="0px"
	 width="446.583px" height="446.583px" viewBox="0 0 446.583 446.583" style="enable-background:new 0 0 446.583 446.583;"
	 xml:space="preserve">
<g>
	<g>
		<path d="M0.042,151.529l20.392,277.246c0.629,8.547,8.081,15.473,16.651,15.473h108.092c8.568,0,16.062-6.926,16.755-15.465
			l12.578-156.755l-16.314-135.962H94.277c-0.697-8.882,0.285-17.767,4.883-25.647c8.077-13.828,28.198-12.711,41.583-10.427
			c11.604,1.978,16.57-15.753,4.891-17.739c-20.52-3.497-43.296-3.206-58.272,13.376c-9.971,11.029-12.279,25.86-11.347,40.437
			H14.417C5.85,136.066-0.586,142.989,0.042,151.529z"/>
		<path d="M422.955,49.18c0-10.748-7.55-19.466-16.852-19.466c-6.824,0-12.663,4.705-15.316,11.447
			c-4.893-0.25-9.838,0.685-14.507,2.994c-1.932-8.292-8.407-14.433-16.206-14.433c-7.113,0-13.168,5.121-15.637,12.334
			c-0.477-0.148-0.954-0.329-1.435-0.447c-2.601-4.168-6.003-8.031-9.99-11.539c-9.33-8.229-19.128-12.986-29.13-9.003
			c-2.133-3.967-4.909-7.586-8.328-10.607c-14.503-12.792-34.836-10.199-45.408,5.8c-1.972,2.99-3.31,6.282-4.348,9.662
			c-1.179-0.076-2.36-0.148-3.579-0.148c-11.745,0-22.028,3.086-27.885,13.259c-3.777-1.655-7.883-2.587-12.195-2.587
			c-17.033,0-30.895,14.271-32.685,32.528h271.401C440.387,57.954,432.592,49.18,422.955,49.18z"/>
		<path d="M166.106,136.066l11.574,96.473l24.854,207.216h200.503l43.545-362.954h-6.717H169.46h-10.455L166.106,136.066z
			 M411.637,101.813h0.425v84.533l-24.918,228.407l-6.231-259.755l-1.282-53.185H411.637z M318.998,210.392v204.369H286.57V218.684
			V103.879v-2.066h5.322h27.105V210.392L318.998,210.392z M193.523,101.813h28.607h3.819l-7.512,312.94l-24.914-228.407v-78.474
			V101.813z"/>
	</g>
</g>
<g>
</g>
<g>
</g>
<g>
</g>
<g>
</g>
<g>
</g>
<g>
</g>
<g>
</g>
<g>
</g>
<g>
</g>
<g>
</g>
<g>
</g>
<g>
</g>
<g>
</g>
<g>
</g>
<g>
</g>
</svg>
